<?xml version="1.0" encoding="UTF-8"?>
<svg width="512px" height="512px" viewBox="0 0 512 512" version="1.1" xmlns="http://www.w3.org/2000/svg" xmlns:xlink="http://www.w3.org/1999/xlink">
    <!-- Generator: Sketch 49.3 (51167) - http://www.bohemiancoding.com/sketch -->
    <title>di- copysafari-pinned-tab</title>
    <desc>Created with Sketch.</desc>
    <defs></defs>
    <g id="di--copy" stroke="none" stroke-width="1" fill="none" fill-rule="evenodd">
        <path d="M255.338446,42 L311.482298,42 L311.482298,470.59542 L192.138262,470.59542 C150.413661,470.59542 117.126518,457.40328 92.2758364,431.018606 C67.4251546,404.633931 55,369.250364 55,324.866841 C55,283.346772 68.0387424,249.19038 94.1166185,222.396641 C120.194495,195.602901 153.481637,182.206233 193.979045,182.206233 C212.796022,182.206233 233.248951,186.194554 255.338446,194.171316 L255.338446,42 Z M255.338446,422.735087 L255.338446,243.872431 C237.953195,235.07754 220.363676,230.68016 202.569361,230.68016 C174.75296,230.68016 152.612664,239.781713 136.147809,257.985093 C119.682953,276.188474 111.450649,300.731989 111.450649,331.616375 C111.450649,360.659971 118.609175,383.055928 132.92644,398.80492 C141.516799,408.213409 150.618353,414.553817 160.231374,417.826335 C169.844395,421.098852 187.12712,422.735087 212.080068,422.735087 L255.338446,422.735087 Z M395.544679,42 L456.90408,42 L456.90408,470.59542 L395.544679,470.59542 L395.544679,42 Z" id="di-copy" fill=""></path>
    </g>
</svg>