<?xml version="1.0" encoding="UTF-8"?>
<svg width="369px" height="107px" viewBox="0 0 369 107" version="1.1" xmlns="http://www.w3.org/2000/svg" xmlns:xlink="http://www.w3.org/1999/xlink">
    <!-- Generator: Sketch 49.3 (51167) - http://www.bohemiancoding.com/sketch -->
    <title>signature</title>
    <desc>Created with Sketch.</desc>
    <defs>
        <filter x="-2.6%" y="-10.2%" width="105.2%" height="127.1%" filterUnits="objectBoundingBox" id="filter-1">
            <feOffset dx="0" dy="2" in="SourceAlpha" result="shadowOffsetOuter1"></feOffset>
            <feGaussianBlur stdDeviation="2" in="shadowOffsetOuter1" result="shadowBlurOuter1"></feGaussianBlur>
            <feColorMatrix values="0 0 0 0 0   0 0 0 0 0   0 0 0 0 0  0 0 0 1 0" type="matrix" in="shadowBlurOuter1" result="shadowMatrixOuter1"></feColorMatrix>
            <feMerge>
                <feMergeNode in="shadowMatrixOuter1"></feMergeNode>
                <feMergeNode in="SourceGraphic"></feMergeNode>
            </feMerge>
        </filter>
    </defs>
    <g id="signature" stroke="none" stroke-width="1" fill="none" fill-rule="evenodd" stroke-linecap="round" stroke-linejoin="round">
        <g id="Signature" filter="url(#filter-1)" transform="translate(21.000000, 24.000000)" stroke="#FFFFFF">
            <path d="M61,36.7091178 C28.0755748,45.5410136 11.2764414,47.3167499 10.6025999,42.0363265 C9.59183756,34.1156915 56.7917361,21.9230473 58.3754102,14.8097758 C59.9590844,7.6965044 5.49978929,5.47293532 0.444093174,0.424542066 C-4.61160294,-4.62385119 35.217292,36.968334 32.8192684,39.5023303 C30.4212449,42.0363265 24.3323829,7.37532922 23.2638269,3.89993564" id="Path"></path>
            <path d="M77.220863,36.6555845 C70.7220748,36.2897731 67.3352906,35.1717148 67.0605103,33.3014096 C66.6483398,30.4959518 68.2326131,25.8493452 75.2030172,26.0037526 C79.3151844,26.0948447 81.8241061,31.698797 80.7523124,34.865994 C78.8077848,40.6121581 68.7866254,40.802923 68.7866254,32.670531" id="Path-2"></path>
            <path d="M84.3520421,28.5957873 C83.4506807,28.6282638 83,28.8626929 83,29.2990744 C83,29.9536467 83.3292467,38.2260699 84.0660993,38.972317 C84.8029519,39.7185642 85.3872101,25.1120066 88.6293616,27.2055405 C91.8715132,29.2990744 90.542429,33.0659097 94,35.2077569" id="Path-3"></path>
            <path d="M116,35.2671816 C110.157664,36.0987891 106.26564,36.3054475 104.323928,35.8871566 C101.41136,35.2597203 96.7838656,32.49451 96.5616118,31.2562749 C96.3393579,30.0180398 97.6226888,25.4460301 101.293217,26.0556672 C104.963746,26.6653043 103.724996,37.3817351 99.823263,36.9894928 C95.9215298,36.5972505 95.3627455,33.909715 96.5616118,31.3530599" id="Path-4"></path>
            <path d="M153.862915,16 C150.20473,13.2850912 149.144774,11.8260766 150.683048,11.6229563 C152.990459,11.3182757 173.01425,10.649541 174.179236,11.2279288 C175.344223,11.8063166 176.505148,11.157849 179,16" id="Path-5"></path>
            <path d="M167,29 C162.039217,20.0559456 159.715152,14.0559456 160.027805,11" id="Path-6"></path>
            <path d="M150.090368,31.6620806 C146.454485,31.7159764 145.242524,32.2120233 146.454485,33.1502212 C148.272427,34.5575181 172.4529,33.6047618 176.971182,32.1840401 C181.489464,30.7633183 176.971182,27.1761171 175.825435,27.4502954 C174.679689,27.7244737 175.78503,35.8473559 177.890712,37.8379691 C179.996395,39.8285823 178.363925,22.7959398 182.149475,24.0679505 C183.040132,24.3672267 183.417262,25.2489144 183.643738,25.7472206 C184.41777,27.4502954 184.40813,29.6690712 188,35.4327399" id="Path-7"></path>
            <path d="M196.722867,24.1663161 C194.775836,23.9445613 193.512334,23.9445613 192.93236,24.1663161 C192.0624,24.4989484 189,25.6930276 189,27.5580567 C189,29.4230858 196.179297,30.3978534 197.622908,30.4912036 C199.066519,30.5845538 204.528177,34.7104115 191.574902,36" id="Path-8"></path>
            <path d="M204.875828,30.1016832 C203.476391,31.7378387 203.754016,32.27428 205.708705,31.711007 C208.640738,30.8660974 214.261844,24.0925955 212.061458,22.1140388 C209.861072,20.1354821 207.998275,21.3952566 207.998275,21.3952566 C207.998275,21.3952566 199.267941,28.539202 209.323832,34.2999324 C212.492781,36.1153318 219.075994,33.9553511 221.284834,32.833179 C222.757394,32.0850643 223.995782,30.8702214 225,29.1886503" id="Path-9"></path>
            <path d="M253.631566,32.8605038 C252.186504,33.9086308 252.279934,34.3487654 253.911856,34.1809077 C256.359738,33.9291212 261.567618,29.7607458 260.734676,27.2167524 C259.901733,24.6727591 256.101495,26.9076981 256.101495,26.9076981 C256.101495,26.9076981 249.62842,31.7618508 256.527037,35.8544632 C257.353854,36.3449731 263.596718,35.4769502 264.984917,35.0044007 C265.910384,34.6893677 266.915411,34.41487 268,34.1809077" id="Path-9-Copy"></path>
            <path d="M228.622531,15.1180491 C228.734103,14.494094 228.266475,14.1228154 227.219648,14.0042132 C224.503383,13.6964693 223.085584,30.3389476 230.204558,33.8791328 C230.807526,34.1789816 231.65568,33.8791328 232,33.4370854" id="Path-10"></path>
            <path d="M233.853095,14 C232.199883,20.9586535 232.949489,27.684017 236.101912,34.1760905 C236.268253,34.5186505 236.430638,34.5647599 236.59068,34.3128202 C237.842058,32.3428856 239.364585,28.4151512 241.111289,26.9620048 C241.835509,26.3595008 245.104959,25.3124421 247.619633,25.7841325 C249.656429,26.1661849 251.85231,29.7358791 250.66518,32.3891987 C249.502643,34.9875513 243.670037,37.3633722 242.836313,37.5304149 C237.702326,38.5590471 235.059539,37.8977553 234.90795,35.5465396" id="Path-11"></path>
            <path d="M267,36 C267.222253,29.3333333 268.864334,26 271.926244,26 C275.151198,26 279,28.7101078 279,30.3161059 C279,31.6422539 278.53344,32.5360461 277.600321,32.9974825" id="Path-12"></path>
            <path d="M308,34.9221564 C303.437181,35.0088792 300.113064,35.2818015 298.027652,35.7409231 C290.445023,37.4103044 286.025698,41.1312991 283.8346,44.9411813 C279.718045,52.0990493 285.109596,57.6045949 287.42627,58.4089803 C289.742944,59.2133656 290.914806,59.180476 291.960541,58.4089803 C293.006277,57.6374846 284.208337,46.6991473 283.224501,44.9411813 C282.240666,43.1832153 277.623283,33.9819724 277.433793,33.5303603 C277.244304,33.0787482 276.102336,31.5506296 276.003554,29.8321218 C275.904772,28.113614 277.877698,25.9138429 280.364583,26.0026024 C282.851468,26.091362 287.42627,26.5194769 287.513457,31.9592219 C287.600644,37.398967 280.510293,36.5596898 279.36807,35.7409231 C278.225847,34.9221564 276.723372,33.5303603 280.511506,30.1271549" id="Path-13"></path>
        </g>
    </g>
</svg>